<svg width="35" height="40" viewBox="0 0 35 40" fill="none" xmlns="http://www.w3.org/2000/svg">
<path d="M22.6797 32.2812C23.1484 31.0703 23.6432 29.7227 24.1641 28.2383C24.6849 26.7409 25.1602 25.2305 25.5898 23.707C26.0326 22.1706 26.3971 20.6797 26.6836 19.2344C26.9701 17.7891 27.1133 16.5 27.1133 15.3672C27.1133 14.5078 27.0547 13.7917 26.9375 13.2188C26.8203 12.6458 26.6836 12.1706 26.5273 11.793C26.3841 11.4023 26.2539 11.0833 26.1367 10.8359C26.0195 10.5885 25.9609 10.3607 25.9609 10.1523C25.9609 9.87891 26.0326 9.65104 26.1758 9.46875C26.332 9.27344 26.5208 9.11068 26.7422 8.98047C26.9635 8.85026 27.2044 8.75911 27.4648 8.70703C27.7253 8.64193 27.9727 8.60938 28.207 8.60938C28.7279 8.60938 29.1641 8.6875 29.5156 8.84375C29.8802 9 30.1341 9.26693 30.2773 9.64453C30.3424 9.83984 30.3945 10.0482 30.4336 10.2695C30.4727 10.4779 30.4987 10.6862 30.5117 10.8945C30.5378 11.0898 30.5508 11.2786 30.5508 11.4609C30.5508 11.6302 30.5508 11.7669 30.5508 11.8711C30.5508 12.418 30.4596 13.1667 30.2773 14.1172C30.0951 15.0677 29.8477 16.1419 29.5352 17.3398C29.2357 18.5378 28.8841 19.8203 28.4805 21.1875C28.0768 22.5547 27.6602 23.9349 27.2305 25.3281C26.8008 26.7083 26.3646 28.0625 25.9219 29.3906C25.4792 30.7188 25.0625 31.9492 24.6719 33.082C24.2812 34.2018 23.9297 35.1849 23.6172 36.0312C23.3177 36.8776 23.0833 37.5091 22.9141 37.9258C22.7969 38.2253 22.6471 38.4661 22.4648 38.6484C22.2956 38.8307 22.1003 38.9674 21.8789 39.0586C21.6576 39.1628 21.4102 39.2279 21.1367 39.2539C20.8763 39.293 20.6029 39.3125 20.3164 39.3125C19.7956 39.3125 19.3724 39.2604 19.0469 39.1562C18.7214 39.0521 18.4544 38.9219 18.2461 38.7656C18.0508 38.6094 17.9076 38.4401 17.8164 38.2578C17.7253 38.0755 17.6536 37.9128 17.6016 37.7695L10.1992 14.5273C10.056 14.0846 9.90625 13.7135 9.75 13.4141C9.60677 13.1016 9.42448 12.8477 9.20312 12.6523C8.99479 12.457 8.74089 12.3138 8.44141 12.2227C8.14193 12.1315 7.77083 12.0859 7.32812 12.0859C6.96354 12.0859 6.54036 12.1771 6.05859 12.3594C5.57682 12.5286 5.11458 12.7891 4.67188 13.1406C4.24219 13.4792 3.8776 13.9089 3.57812 14.4297C3.27865 14.9375 3.12891 15.5299 3.12891 16.207C3.12891 16.6237 3.18099 16.9557 3.28516 17.2031C3.40234 17.4505 3.53255 17.6393 3.67578 17.7695C3.81901 17.8867 3.96224 17.9648 4.10547 18.0039C4.26172 18.0299 4.3724 18.043 4.4375 18.043C4.76302 18.043 5.02995 17.9909 5.23828 17.8867C5.44661 17.7695 5.63542 17.6523 5.80469 17.5352C5.97396 17.4049 6.13021 17.2878 6.27344 17.1836C6.42969 17.0664 6.60547 17.0078 6.80078 17.0078C6.95703 17.0078 7.11979 17.0469 7.28906 17.125C7.47135 17.1901 7.63411 17.3008 7.77734 17.457C7.93359 17.6133 8.0638 17.8216 8.16797 18.082C8.27214 18.3294 8.32422 18.6354 8.32422 19C8.32422 19.5208 8.22005 19.9701 8.01172 20.3477C7.81641 20.7253 7.55599 21.0443 7.23047 21.3047C6.91797 21.5521 6.55339 21.7409 6.13672 21.8711C5.73307 21.9883 5.32943 22.0469 4.92578 22.0469C4.30078 22.0469 3.74089 21.9362 3.24609 21.7148C2.76432 21.4935 2.35417 21.194 2.01562 20.8164C1.6901 20.4388 1.4362 20.0026 1.25391 19.5078C1.08464 19 1 18.4596 1 17.8867C1 16.5326 1.26042 15.3542 1.78125 14.3516C2.30208 13.3359 2.99219 12.4896 3.85156 11.8125C4.71094 11.1354 5.6875 10.6341 6.78125 10.3086C7.875 9.97005 9.0013 9.80078 10.1602 9.80078C11.4622 9.80078 12.5299 10.0026 13.3633 10.4062C14.1966 10.7969 14.8672 11.3047 15.375 11.9297C15.8958 12.5547 16.306 13.2578 16.6055 14.0391C16.9049 14.8073 17.1719 15.569 17.4062 16.3242L22.6797 32.2812Z" fill="#333333"/>
</svg>
